# xmcd
#
# Track frame offsets: 
#        150
#        25317
#        41359
#        59211
#        78004
#        97052
#        114198
#        128381
#        146717
#        162950
#        179283
#        199861
#        219077
#        238224
#        256896
#
# Disc length: 3707 seconds
#
# Revision: 0
# Processed by: cddbd v1.5PL3 Copyright (c) Steve Scherf et al.
# Submitted via: ExactAudioCopy v0.90b4
#
DISCID=c90e790f
DTITLE=Faith Hill - This Kiss - disc 2
DYEAR=2001
DGENRE=Country
TTITLE0=What's In It For Me
TTITLE1=I Got My Baby
TTITLE2=Love Is sweet Thing
TTITLE3=Breathe
TTITLE4=LWT's Make Love
TTITLE5=It Will Be Me
TTITLE6=The Way You Love Me
TTITLE7=If I'm Not In Love
TTITLE8=Bringing Out The Elvis
TTITLE9=If My Heart Had Wings
TTITLE10=If I Should Fall Behind
TTITLE11=That's How Love Moves
TTITLE12=There will Come A Day
TTITLE13=Leaving Is The Only Way Out
TTITLE14=Raining On Our Love
EXTD=
EXTT0=
EXTT1=
EXTT2=
EXTT3=
EXTT4=
EXTT5=
EXTT6=
EXTT7=
EXTT8=
EXTT9=
EXTT10=
EXTT11=
EXTT12=
EXTT13=
EXTT14=
PLAYORDER=
